<svg height="300px" width="300px" fill="#68B4FF" xmlns="http://www.w3.org/2000/svg" viewBox="0 0 90 68.82" x="0px" y="0px">
	<g>
		<path d="M88.46,13.59H7.54A4.54,4.54,0,0,0,3,18.13V77.87a4.54,4.54,0,0,0,4.54,4.54H88.46A4.54,4.54,0,0,0,93,77.87V18.13A4.54,4.54,0,0,0,88.46,13.59ZM12.05,18.1H84a4.54,4.54,0,0,1,4.54,4.54v5.67h-81V22.64A4.54,4.54,0,0,1,12.05,18.1ZM84,77.9H12.05a4.54,4.54,0,0,1-4.54-4.54V42h81V73.36A4.54,4.54,0,0,1,84,77.9ZM49,53.13H16a2.09,2.09,0,0,1-2.08-1.67,2,2,0,0,1,2-2.33h33A2.08,2.08,0,0,1,51,50.79,2,2,0,0,1,49,53.13Zm-16.56,9H16a2.09,2.09,0,0,1-2.08-1.67,2,2,0,0,1,2-2.33H32.33a2.08,2.08,0,0,1,2.08,1.67A2,2,0,0,1,32.44,62.13ZM78.1,67.5H62.65A2.52,2.52,0,0,1,60.13,65V49.52A2.52,2.52,0,0,1,62.65,47H78.1a2.52,2.52,0,0,1,2.53,2.52V65A2.52,2.52,0,0,1,78.1,67.5Zm-14-4h12.5V51H64.13Z" transform="translate(-3 -13.59)"/>
	</g>
</svg>