<?xml version="1.0"?>
<svg width="512" height="512" fill="#68B4FF" xmlns="http://www.w3.org/2000/svg" xmlns:svg="http://www.w3.org/2000/svg">

 <g class="layer">
  <title>Layer 1</title>
  <rect height="16" id="svg_1" width="56" x="280" y="392"/>
  <rect height="16" id="svg_2" width="56" x="280" y="360"/>
  <rect height="16" id="svg_3" width="24" x="352" y="360"/>
  <path d="m138.759521,264.582368a104.227804,104.227804 0 1 0 104.227804,104.227804a104.34506,104.34506 0 0 0 -104.227804,-104.227804z" fill-opacity="0" id="svg_4" stroke="#68B4FF" stroke-width="14"/>
  <rect height="16" id="svg_5" width="24" x="392" y="360"/>
  <rect height="16" id="svg_6" width="24" x="392" y="392"/>
  <rect height="16" id="svg_7" width="24" x="352" y="392"/>
  <path d="m72,280a111.948,111.948 0 0 1 143,168l225,0a16.019,16.019 0 0 0 16,-16l0,-304l-384,0l0,152zm328,-64l16,0l0,104l-16,0l0,-104zm-32,-40l16,0l0,120l-16,0l0,-120zm-32,-24l16,0l0,112l-16,0l0,-112zm-32,24l16,0l0,80l-16,0l0,-80zm-32,16l16,0l0,80l-16,0l0,-80zm-8,160a8,8 0 0 1 8,-8l152,0a8,8 0 0 1 8,8l0,64a8,8 0 0 1 -8,8l-152,0a8,8 0 0 1 -8,-8l0,-64zm-24,-144l16,0l0,96l-16,0l0,-96zm-32,-32l16,0l0,72l-16,0l0,-72zm-32,-24l16,0l0,72l-16,0l0,-72zm-32,8l16,0l0,64l-16,0l0,-64zm-32,16l16,0l0,64l-16,0l0,-64z" id="svg_8"/>
  <path d="m440,64l-352,0a16.019,16.019 0 0 0 -16,16l0,32l384,0l0,-32a16.019,16.019 0 0 0 -16,-16zm-336,32l-16,0l0,-16l16,0l0,16zm32,0l-16,0l0,-16l16,0l0,16zm32,0l-16,0l0,-16l16,0l0,16z" id="svg_9"/>
  <path d="m200.492593,352.622899c2.755647,-18.394385 -11.25954,-28.284878 -30.408657,-34.88439l6.213371,-24.92369l-15.164837,-3.773657l-6.055404,24.265494c-3.98428,-1.000458 -8.073871,-1.930708 -12.154687,-2.860959l6.099283,-24.423461l-15.164837,-3.782433l-6.213371,24.914914c-3.299756,-0.754731 -6.546857,-1.491911 -9.688646,-2.281746l0.017552,-0.078984l-20.921858,-5.221689l-4.036936,16.200399s11.25954,2.580128 11.02259,2.738096c6.143163,1.535791 7.248932,5.599054 7.064638,8.828603l-7.073413,28.390189c0.421245,0.105311 0.965354,0.263278 1.57967,0.500229l-1.605998,-0.394918l-9.91682,39.772593c-0.754731,1.860501 -2.659112,4.660028 -6.959326,3.598138c0.157967,0.219399 -11.02259,-2.746871 -11.02259,-2.746871l-7.529763,17.358824l19.745881,4.923306c3.668346,0.921474 7.266484,1.886829 10.803191,2.790751l-6.274802,25.20452l15.156061,3.773657l6.213371,-24.92369c4.142247,1.114545 8.161631,2.150107 12.093255,3.133013l-6.195819,24.818379l15.164837,3.773657l6.274802,-25.151865c25.871492,4.896979 45.318991,2.92239 53.50695,-20.474285c6.599512,-18.833183 -0.32471,-29.706581 -13.936204,-36.788771c9.91682,-2.281746 17.376375,-8.802275 19.368515,-22.273354zm-34.664991,48.601196c-4.67758,18.841959 -36.402629,8.653084 -46.688039,6.099283l8.33715,-33.392479c10.28541,2.571353 43.256644,7.652626 38.350889,27.293196zm4.695132,-48.87325c-4.273886,17.139425 -30.671936,8.424909 -39.228484,6.292354l7.547315,-30.277018c8.556549,2.132555 36.139351,6.108059 31.681169,23.984664z" fill-rule="nonzero" id="svg_12"/>
 </g>
</svg>