<?xml version="1.0"?>
<svg width="100" height="100" fill="#68B4FF" xmlns="http://www.w3.org/2000/svg" xmlns:svg="http://www.w3.org/2000/svg">

 <g class="layer">
  <title>Layer 1</title>
  <g id="svg_8">
   <path d="m79.781817,60.541975a17.666555,17.666555 0 1 0 17.666555,17.666555a17.68643,17.68643 0 0 0 -17.666555,-17.666555z" fill-opacity="0" id="svg_9" stroke="#68B4FF" stroke-width="2"/>
   <path d="m90.245538,75.464797c0.467081,-3.117838 -1.908486,-4.794271 -5.154251,-5.912885l1.053163,-4.224552l-2.570432,-0.639633l-1.026388,4.112988c-0.675333,-0.169577 -1.368517,-0.327254 -2.060213,-0.484931l1.033825,-4.139763l-2.570432,-0.64112l-1.053163,4.223064c-0.559307,-0.127926 -1.109689,-0.252878 -1.64222,-0.386755l0.002975,-0.013388l-3.546243,-0.885073l-0.684258,2.745959s1.908486,0.43733 1.868323,0.464106c1.041263,0.260316 1.22869,0.949037 1.197452,1.496443l-1.19894,4.812121c0.071401,0.01785 0.163627,0.044625 0.267753,0.084789l-0.272216,-0.066938l-1.680896,6.741433c-0.127926,0.315354 -0.450718,0.789872 -1.179602,0.609882c0.026775,0.037188 -1.868323,-0.465593 -1.868323,-0.465593l-1.276291,2.942311l3.346916,0.834498c0.621783,0.156189 1.231665,0.319816 1.831135,0.473031l-1.063575,4.272152l2.568944,0.639633l1.053163,-4.224552c0.702109,0.188915 1.383392,0.364442 2.0498,0.531044l-1.050188,4.206702l2.570432,0.639633l1.063575,-4.263227c4.385204,0.830035 7.681544,0.495343 9.069399,-3.47038c1.118614,-3.192214 -0.055038,-5.035249 -2.362179,-6.235676c1.680896,-0.386755 2.945286,-1.491981 3.282953,-3.775321l0,0zm-5.875697,8.237876c-0.792847,3.193702 -6.170226,1.466693 -7.913597,1.033825l1.413142,-5.660007c1.743371,0.435843 7.331977,1.297116 6.500455,4.626182zm0.795822,-8.283989c-0.724421,2.905123 -5.198876,1.428017 -6.649206,1.066551l1.279266,-5.131938c1.45033,0.361467 6.1256,1.035313 5.369941,4.065387z" fill-rule="nonzero" id="svg_10"/>
  </g>
  <path d="m38.1,91.5l-36.6,0l0,-11.9c0,-2.5 1.1,-4.9 3,-6.4c10.7,-8.8 22.3,-14.7 24.7,-15.8c0.3,-0.1 0.4,-0.4 0.4,-0.7l0,-6.2c-1.6,-2.7 -2.5,-5.7 -2.9,-8.4c-0.9,-0.1 -2.2,-1.4 -3.5,-6.1c-1.7,-6.1 -0.1,-7.3 1.4,-7.3c0.1,0 0.2,0 0.3,0c-1.2,-3.4 -1.2,-6.7 -0.4,-9.8c0.9,-3.6 2.8,-6.5 5,-8.8c1.4,-1.5 3,-2.8 4.6,-3.8c1.4,-0.9 2.9,-1.8 4.5,-2.3l0,0c1.3,-0.4 2.6,-0.7 4.1,-0.8c0.6,-0.1 1.2,-0.1 1.8,-0.1c3.6,0 6.4,1 8.5,2.3c3.6,2 5,4.7 5,4.7s9.1,0.6 5.1,19.8c1.2,0.4 2.1,2.1 0.7,7.1c-1.4,4.9 -2.7,6.1 -3.6,6.1c-0.3,0 -0.5,-0.1 -0.7,-0.2c-0.4,2.1 -1,4.5 -2.1,6.7c0,3.1 0,6 0,7.1c0,0.3 0.2,0.6 0.4,0.7c1,0.5 3.6,1.8 7,3.7c-4.8,4.2 -7.8,10.3 -7.8,17.1c0,5 1.6,9.5 4.3,13.3l-12.2,0l-3.6,-16.5c7.3,-10.2 -0.5,-10.7 -1.9,-10.7l0,0l0,0c-1.4,0 -9.2,0.5 -1.9,10.7l-3.6,16.5z" id="svg_1"/>
  <path d="m138.759521,264.582368a104.227804,104.227804 0 1 0 104.227804,104.227804a104.34506,104.34506 0 0 0 -104.227804,-104.227804z" fill-opacity="0" id="svg_7" stroke="#68B4FF" stroke-width="14"/>
 </g>
</svg>