<?xml version="1.0"?>
<svg width="512" height="512" fill="#68B4FF" xmlns="http://www.w3.org/2000/svg" xmlns:svg="http://www.w3.org/2000/svg">

 <g class="layer">
  <title>Layer 1</title>
  <circle cx="195.453351" cy="308.496826" fill="none" id="svg_8" r="122.211175" stroke="#000000" stroke-opacity="0"/>
  <path d="m487.4,238l-26.3,0l0,-77c0,-5.5 -4.5,-10 -10,-10l-40.7,0l0,-65.5c0,-19.3 -15.7,-35 -35,-35l-300.8,0c-33.1,0 -60,26.9 -60,60l0,0.5c0,0.6 0,1.2 0,1.8c0,0.3 0,0.6 0,0.9l0,287.8c0,33.1 26.9,60 60,60l377.1,0c5.5,0 10,-4.5 10,-10l0,-80l25.8,0c5.5,0 10,-4.5 10,-10l0,-113.5c-0.1,-5.5 -4.5,-10 -10.1,-10zm-452.8,-127.5c0,-22.1 17.9,-40 40,-40l300.8,0c8.3,0 15,6.7 15,15l0,65.5l-315.8,0c-22.1,0 -40,-17.9 -40,-40l0,-0.5zm407,331l-367,0c-22.1,0 -40,-17.9 -40,-40l0,-245.8c10.6,9.5 24.6,15.3 40,15.3l366.6,0l0,67l-56.6,0c-27.6,0 -50,22.4 -50,50l0,33.6c0,27.6 22.4,50 50,50l57.1,0l0,69.9l-0.1,0zm35.8,-90l-92.9,0c-16.5,0 -30,-13.5 -30,-30l0,-33.5c0,-16.5 13.5,-30 30,-30l92.9,0l0,93.5z" id="svg_2"/>
  <path d="m84.6,120.8l255.8,0c5.5,0 10,-4.5 10,-10s-4.5,-10 -10,-10l-255.8,0c-5.5,0 -10,4.5 -10,10s4.4,10 10,10z" id="svg_3"/>
  <path d="m394.5,278c-5.5,0 -10,4.5 -10,10l0,33.6c0,5.5 4.5,10 10,10s10,-4.5 10,-10l0,-33.6c0,-5.5 -4.4,-10 -10,-10z" id="svg_4"/>
  <path d="m271.524873,282.020687c3.656311,-24.406457 -14.939639,-37.529585 -40.347506,-46.2861l8.244166,-33.069817l-20.121354,-5.00705l-8.034568,32.196495c-5.286513,-1.32745 -10.712758,-2.561746 -16.127358,-3.796042l8.09279,-32.406092l-20.121354,-5.018694l-8.244166,33.058173c-4.378257,-1.00141 -8.686649,-1.979531 -12.855309,-3.027518l0.023289,-0.104799l-27.760016,-6.92836l-5.356379,21.495381s14.939639,3.423425 14.625243,3.633022c8.151011,2.037753 9.618193,7.429065 9.373663,11.714168l-9.385307,37.669317c0.558926,0.139732 1.280873,0.349329 2.095974,0.663725l-2.130907,-0.523994l-13.158061,52.771976c-1.00141,2.468592 -3.528223,6.183124 -9.233931,4.774164c0.209597,0.291108 -14.625243,-3.644666 -14.625243,-3.644666l-9.990811,23.032429l26.199679,6.532453c4.867318,1.222652 9.641482,2.503525 14.334136,3.702888l-8.325676,33.442435l20.109709,5.00705l8.244166,-33.069817c5.49611,1.478826 10.829201,2.852854 16.045848,4.157016l-8.220877,32.930086l20.121354,5.00705l8.325676,-33.372569c34.327402,6.49752 60.131175,3.877553 70.995308,-27.166156c8.756515,-24.988672 -0.430839,-39.415962 -18.491151,-48.812913c13.158061,-3.027518 23.055718,-11.679235 25.698974,-29.553238zm-45.994992,64.486144c-6.206413,25.000316 -48.300564,11.481282 -61.947686,8.09279l11.062087,-44.306569c13.647122,3.41178 57.394764,10.153831 50.885599,36.213779zm6.229701,-64.847117c-5.670775,22.741322 -40.696835,11.17853 -52.050029,8.348964l10.0141,-40.172841c11.353194,2.829565 47.951235,8.104434 42.03593,31.823877z" fill-rule="nonzero" id="svg_9"/>
 </g>
</svg>