<svg width="32" height="32" xmlns="http://www.w3.org/2000/svg" xmlns:svg="http://www.w3.org/2000/svg">
	<g>
		<path d="m15.999647,0.031999c-8.81773,0 -15.969019,7.150423 -15.969019,15.968586c0,1.76294 0.285602,3.458375 0.813532,5.044328l4.775603,0l0,-13.43582l10.379884,10.379884l10.379884,-10.379884l0,13.43582l4.776036,0c0.52793,-1.585954 0.813532,-3.281388 0.813532,-5.044328c0,-8.818163 -7.151289,-15.968586 -15.969451,-15.968586" fill="#ff6600" id="path22"/>
		<path d="m9.083071,15.845106l0,8.454237l-6.728945,0c2.803222,4.59905 7.866158,7.670564 13.645261,7.670564c5.779103,0 10.842472,-3.071514 13.645261,-7.670564l-6.728512,0l0,-8.454237l-6.916749,6.916749l-6.916316,-6.916749z" fill="#bfbfbf" id="path26"/>
	</g>
</svg>